<svg xmlns="http://www.w3.org/2000/svg" viewBox="0 0 320.76 320.76"><defs><style>.cls-1{fill:#89cab8;}.cls-2{fill:#133a3b;}</style></defs><g id="Layer_2" data-name="Layer 2"><g id="Layer_1-2" data-name="Layer 1"><circle class="cls-1" cx="160.38" cy="160.38" r="160.38"/><path class="cls-2" d="M292.86,103.42H215.78a51.9,51.9,0,1,0,0,103.79c22.85.19,41.76-13.66,49.27-35.56h0ZM229,153.15A13.17,13.17,0,1,1,242.12,140,13.17,13.17,0,0,1,229,153.15ZM43.49,151.62,27.9,113.36,69,142.43Zm60.17,15.31L61.94,189.78a55,55,0,0,1-10.28-18.13h0l-4.13-10.12L79.65,150ZM122,107.86a51.9,51.9,0,0,1,30.86,47.45,51.36,51.36,0,0,1-8,27.64l-24-16.94Zm-46-4.44L77,135l-44.7-31.6Zm62.2,87.92a52.42,52.42,0,0,1-37.26,15.87,50.55,50.55,0,0,1-30.74-9.76l43.18-23.65ZM86.68,103.42h14.25a52.41,52.41,0,0,1,10.4,1l-1,54.09L88,142.76Zm-4,145.64c-2.94,2.45-6.69,1.46-10.5-3.1l-7.65-9.17,17-14.18,7.25,8.69c3.72,4.46,3.72,8.17,1.1,10.35a5.21,5.21,0,0,1-5.59.8A5.59,5.59,0,0,1,82.64,249.06Zm-3.52-5.3c1.16-1,1-2.31-.38-4l-3.37-4-3.44,2.88,3.36,4C76.67,244.32,78,244.73,79.12,243.76ZM82,230.26,78.7,233l2.75,3.3c1.34,1.6,2.59,2,3.68,1s.94-2.19-.4-3.79Zm16.69,29L94,265.63l-5-3.7,4.75-6.47,1.54-16.35,5.33,3.91-1,10.18,9.43-4,4.89,3.59Zm47,4.45L139.83,285l-5-1.36-6.32-13.94-3.1,11.37-5.91-1.61,5.82-21.34,5,1.36,6.31,13.94,3.11-11.37Zm15.79,18.44-9.35-.28-1.87,4.24-6.38-.2,10.44-21.81,6.16.19,9.11,22.41-6.51-.2Zm-1.69-4.66-2.63-7.17-3.06,7ZM177,267.84l-6.66,1.34-1-4.86,19.42-3.9,1,4.86-6.63,1.33,3.37,16.83-6.13,1.23Zm22.44,1.81-5.57-10.93,5.58-2.84,5.48,10.76c1.72,3.38,3.82,4,6.15,2.83s3-3.25,1.31-6.63l-5.48-10.76,5.49-2.79L218,260.21c3,5.89,1.24,10.93-4.59,13.9S202.42,275.54,199.42,269.65Zm34.7-17.36-2.55,2.27,3.92,4.39-4.67,4.17-14.73-16.51,7.55-6.74c4.5-4,9.42-4.21,12.78-.43a7.33,7.33,0,0,1,1.42,8.09l8.19,2L241,254Zm-7.48-8.49-2.6,2.32,4.32,4.83,2.59-2.31c1.93-1.73,2.1-3.48.75-5S228.57,242.08,226.64,243.8Zm31-18.37,4,2.75L251.58,242.8l-18.22-12.55L243.21,216l4,2.74-6.33,9.19,3.07,2.12,5.58-8.1,3.85,2.66-5.58,8.09,3.33,2.3ZM78.5,80c-3.87-5.51-2.4-12.38,3.35-16.41a11.69,11.69,0,0,1,10.18-2l-1.19,5.24a6.51,6.51,0,0,0-5.76.87A6.33,6.33,0,0,0,92.35,78a6.57,6.57,0,0,0,2.78-5.12l5.33.66a11.73,11.73,0,0,1-5.39,8.89C89.32,86.45,82.36,85.5,78.5,80ZM102,65.82,97.23,54.51,103,52.09l4.67,11.13c1.47,3.5,3.52,4.28,5.93,3.27s3.26-3,1.8-6.51l-4.67-11.13,5.68-2.39,4.74,11.31c2.56,6.09.43,11-5.6,13.52S104.53,71.91,102,65.82Zm36.78-7.93-3.36.61,1,5.78-6.15,1.11-3.93-21.77,10-1.79c5.94-1.07,10.22,1.33,11.12,6.31a7.33,7.33,0,0,1-3,7.64l5.93,6L143.75,63Zm-1.94-11.14-3.42.61,1.14,6.38,3.43-.62c2.55-.46,3.61-1.87,3.25-3.86S139.37,46.29,136.82,46.75Zm17.69-6.92,6.25-.12.42,22.12-6.26.12Zm13.17,10.6c1-6.56,6.9-10.58,13.9-9.51S193,47.59,192,54.15s-6.9,10.58-13.89,9.51S166.68,57,167.68,50.43Zm18.06,2.76c.58-3.78-1.63-6.64-5-7.15s-6.28,1.57-6.86,5.35,1.64,6.64,4.95,7.15S185.16,57,185.74,53.19Zm12.34,4.09,4.6-11.37,5.8,2.35L204,59.45c-1.42,3.52-.52,5.52,1.91,6.5s4.44.16,5.86-3.36l4.52-11.2L222,53.7l-4.59,11.37c-2.47,6.13-7.43,8.11-13.5,5.66S195.61,63.41,198.08,57.28Zm20.21,17.24,4.28-2.69a13.89,13.89,0,0,0,4.85,5.87c2.15,1.45,3.4,1.4,4,.51,2-2.91-9.93-7.78-5.36-14.61,2.2-3.28,6.67-4.17,12.13-.51a16.59,16.59,0,0,1,5.6,6.06l-4.18,2.79a13.22,13.22,0,0,0-4.15-4.83c-2.18-1.46-3.46-1.25-4.07-.33-1.88,2.81,10,7.69,5.41,14.47-2.14,3.2-6.65,4.14-12.11.48A17.47,17.47,0,0,1,218.29,74.52Z"/></g></g></svg>